<?xml version="1.0" encoding="UTF-8"?>
<svg version="1.1" xmlns="http://www.w3.org/2000/svg" width="1920" height="859">
<path d="M0 0 C45.54 0 91.08 0 138 0 C138.33 85.8 138.66 171.6 139 260 C141.31 257.69 143.62 255.38 146 253 C169.32722439 234.78443132 199.06700206 225.42802762 228 221 C228.74185547 220.88430664 229.48371094 220.76861328 230.24804688 220.64941406 C284.30886137 212.69373961 342.58868339 224.49708059 387 257 C387.73476563 257.53625 388.46953125 258.0725 389.2265625 258.625 C391.52955684 260.36690117 393.76888162 262.16678808 396 264 C396.49693359 264.40669922 396.99386719 264.81339844 397.50585938 265.23242188 C411.92414695 277.10123924 424.92473588 289.94104203 436 305 C436.63929443 305.85609863 436.63929443 305.85609863 437.29150391 306.72949219 C482.61729533 367.54116695 489.54282621 437.58058127 489.31061552 510.95032298 C489.28877213 518.04165312 489.28462859 525.13296547 489.2812262 532.22432447 C489.27471397 544.86320309 489.25489757 557.50202252 489.22631836 570.14086914 C489.19864045 582.39412141 489.17747479 594.64735741 489.16479492 606.90063477 C489.16400675 607.6601482 489.16321858 608.41966164 489.16240653 609.20219063 C489.15849047 613.01370718 489.15469957 616.82522383 489.15097082 620.63674057 C489.12003838 652.09120337 489.06712023 683.54559256 489 715 C471.1546915 715.02332826 453.30938694 715.04097882 435.46406651 715.05181217 C427.17875726 715.05697528 418.89345747 715.06401827 410.6081543 715.07543945 C403.38930392 715.08538583 396.17046039 715.09185332 388.95160335 715.09408849 C385.12691745 715.09539568 381.30225113 715.09848203 377.47757149 715.10573006 C373.88174213 715.11248954 370.28594054 715.11461711 366.69010544 715.11310768 C364.73293963 715.11351636 362.77577688 715.11891193 360.81861877 715.12442017 C359.664505 715.1230455 358.51039124 715.12167084 357.32130432 715.12025452 C356.311941 715.12117631 355.30257769 715.1220981 354.2626276 715.12304783 C352 715 352 715 351 714 C350.90133746 712.64875593 350.87153997 711.29240488 350.86971474 709.93756485 C350.86427822 708.61638039 350.86427822 708.61638039 350.85873187 707.26850533 C350.86033424 705.80023722 350.86033424 705.80023722 350.86196899 704.30230713 C350.85914771 703.27088018 350.85632643 702.23945323 350.85341966 701.17677093 C350.84503054 697.69108204 350.84373167 694.20542474 350.84228516 690.71972656 C350.83761964 688.2315156 350.83247651 685.7433055 350.82688904 683.25509644 C350.81558037 677.87872604 350.80710776 672.50236192 350.80076981 667.12598419 C350.79044182 658.60966428 350.76987255 650.0933834 350.74765015 641.5770874 C350.74016899 638.66154875 350.73275527 635.74600992 350.72536278 632.83047104 C350.72351221 632.1016253 350.72166165 631.37277956 350.719755 630.62184758 C350.69880714 622.31561055 350.6799947 614.00936915 350.66210938 605.703125 C350.66047119 604.94360164 350.65883301 604.18407828 350.65714519 603.40153906 C350.63096146 591.14232862 350.61226521 578.88311518 350.59551747 566.62388876 C350.57802005 554.01843245 350.54908534 541.41303432 350.5106281 528.80762458 C350.48736926 521.04654957 350.47324635 513.28556958 350.47130047 505.52445945 C350.46891693 499.54815624 350.45089454 493.57199916 350.42743111 487.59573746 C350.42030011 485.16315536 350.41810657 482.73055233 350.42153358 480.29796219 C350.4428178 462.29867742 349.87812817 443.97833713 344.3125 426.6875 C344.05903809 425.87611572 343.80557617 425.06473145 343.54443359 424.22875977 C339.41026506 411.55965363 333.29456297 400.43159011 325 390 C324.236875 388.96875 323.47375 387.9375 322.6875 386.875 C305.59245851 368.58728119 281.20788865 358.85882768 256.39453125 358.00390625 C223.89641731 357.59498466 194.13587353 369.52235365 170.80859375 392.1015625 C149.96263904 413.12642173 138.8715462 442.23918651 138.84178162 471.6048584 C138.83684364 472.6489161 138.83190566 473.69297379 138.82681805 474.76866961 C138.81150588 478.25398132 138.80309949 481.73927471 138.79467773 485.22460938 C138.78509427 487.72822225 138.77508392 490.23183352 138.76467896 492.73544312 C138.74326426 498.11882494 138.72481028 503.50220435 138.70907402 508.88560486 C138.68631716 516.66900216 138.65818256 524.4523728 138.62875474 532.2357474 C138.58114992 544.86516094 138.53786659 557.49458542 138.49731445 570.12402344 C138.45792327 582.38900605 138.41647731 594.65397891 138.37231445 606.91894531 C138.36956495 607.6832471 138.36681544 608.44754889 138.36398262 609.23501134 C138.34246222 615.21276126 138.32082302 621.19051074 138.29914629 627.1682601 C138.19301059 656.44548703 138.09723228 685.72273953 138 715 C92.46 715 46.92 715 0 715 C0 479.05 0 243.1 0 0 Z " fill="#EC5E88" transform="translate(47,67)"/>
<path d="M0 0 C1.31943604 0.28206299 1.31943604 0.28206299 2.66552734 0.56982422 C31.49978605 6.92742169 57.91867139 18.64055827 81 37 C81.02505615 36.15703369 81.0501123 35.31406738 81.07592773 34.44555664 C81.17088155 31.32758326 81.27012448 28.20978497 81.37231445 25.09204102 C81.41571223 23.74085853 81.4573837 22.38961947 81.49731445 21.03833008 C81.55489952 19.09963299 81.61914298 17.16113724 81.68359375 15.22265625 C81.72025146 14.05484619 81.75690918 12.88703613 81.79467773 11.68383789 C82 9 82 9 83 8 C128.54 8 174.08 8 221 8 C221 168.05 221 328.1 221 493 C175.46 493 129.92 493 83 493 C81.14034925 491.14034925 81.75912451 488.05110881 81.68359375 485.55859375 C81.64169922 484.25341797 81.59980469 482.94824219 81.55664062 481.60351562 C81.51682392 480.2148467 81.47711175 478.82617478 81.4375 477.4375 C81.39432011 476.04490817 81.350706 474.65232972 81.30664062 473.25976562 C81.20014124 469.83995199 81.09813077 466.42006237 81 463 C80.34427002 463.6818335 80.34427002 463.6818335 79.67529297 464.37744141 C50.68015403 494.03031507 4.04670129 503.43172568 -35.79882812 504.01123047 C-89.29089313 503.82356764 -143.0715213 483.63022887 -183 448 C-184.41606013 446.77013463 -185.83264572 445.54087371 -187.25 444.3125 C-187.86230469 443.77109375 -188.47460938 443.2296875 -189.10546875 442.671875 C-190.47428672 441.46392842 -191.85321038 440.26740052 -193.23828125 439.078125 C-197.48027269 435.39935595 -201.38913573 431.65733318 -205.0078125 427.36328125 C-206.5419478 425.54337564 -208.09708884 423.75745061 -209.6796875 421.98046875 C-223.48451901 406.37749054 -234.22865152 389.37471283 -244 371 C-244.39171387 370.26346191 -244.78342773 369.52692383 -245.18701172 368.76806641 C-259.48858198 341.3583718 -267.60320088 310.61482071 -271 280 C-271.0942627 279.21882813 -271.18852539 278.43765625 -271.28564453 277.6328125 C-272.28499973 268.36508916 -272.24364891 259.06080582 -272.25 249.75 C-272.25101212 248.41474777 -272.25101212 248.41474777 -272.25204468 247.05252075 C-272.23534523 233.16091833 -271.64063721 219.67308669 -269 206 C-268.82307617 205.05995117 -268.64615234 204.11990234 -268.46386719 203.15136719 C-263.31603516 176.38086248 -254.78422228 151.09043253 -242 127 C-241.63181152 126.29166016 -241.26362305 125.58332031 -240.88427734 124.85351562 C-212.45906731 70.33677763 -161.02335472 25.9761805 -102.34912109 7.14941406 C-69.66068141 -2.84247983 -33.71076905 -7.37823148 0 0 Z M-99.4140625 167.3203125 C-118.63637725 187.23950876 -130.91958283 214.19100142 -132 242 C-132.03996094 242.845625 -132.07992188 243.69125 -132.12109375 244.5625 C-132.84864609 275.37648142 -124.16905235 303.7772884 -105 328 C-104.49726562 328.65871094 -103.99453125 329.31742188 -103.4765625 329.99609375 C-99.07832264 335.50024942 -93.55451416 339.71791912 -88 344 C-87.19433594 344.62132812 -86.38867188 345.24265625 -85.55859375 345.8828125 C-61.6815925 363.42670469 -31.17421424 369.45492594 -2.1003418 365.17504883 C26.32309783 360.26875941 50.84488479 345.18030438 67.72900391 321.82177734 C87.37475884 293.66261036 91.6443131 258.14715437 85.984375 224.85546875 C84.61631168 217.68448956 82.47555364 210.85658073 80 204 C79.70480469 203.11570312 79.40960937 202.23140625 79.10546875 201.3203125 C70.4842251 177.30680279 50.71461328 157.13090153 28.0703125 146.015625 C-15.23481093 125.77017505 -64.92517899 134.8542374 -99.4140625 167.3203125 Z " fill="#F46793" transform="translate(1421,289)"/>
<path d="M0 0 C1.21739365 0.00515121 1.21739365 0.00515121 2.4593811 0.01040649 C14.28392428 0.06896902 25.93942075 0.29011453 37.625 2.25 C38.58809082 2.40597656 39.55118164 2.56195313 40.54345703 2.72265625 C85.6803213 10.20964956 127.0133102 28.50595408 162.625 57.25 C164.15447266 58.47203125 164.15447266 58.47203125 165.71484375 59.71875 C178.95428745 70.49083348 191.24086674 82.69850564 201.625 96.25 C202.78128906 97.68085938 202.78128906 97.68085938 203.9609375 99.140625 C217.71664889 116.41120271 228.50445149 135.5095719 237.0625 155.8125 C237.71919678 157.36650513 237.71919678 157.36650513 238.38916016 158.9519043 C238.79569824 159.93843994 239.20223633 160.92497559 239.62109375 161.94140625 C240.16527954 163.25927124 240.16527954 163.25927124 240.72045898 164.60375977 C241.70109019 167.47260232 242.20392264 170.25198405 242.625 173.25 C241.5234375 174.04557292 240.421875 174.84114583 239.3203125 175.63671875 C238.60093506 176.1562915 237.88155762 176.67586426 237.14038086 177.21118164 C235.52409269 178.37845502 233.90771661 179.54560669 232.29125977 180.71264648 C228.19866904 183.6676384 224.10721236 186.62415689 220.01953125 189.5859375 C212.05464828 195.3538214 204.06019012 201.07460681 196.01708984 206.73291016 C187.83313928 212.49814524 179.730709 218.37553993 171.625 224.25 C162.12733199 231.13325617 152.61067967 237.98384082 143.01708984 244.73291016 C134.83313928 250.49814524 126.730709 256.37553993 118.625 262.25 C109.12817587 269.13264459 99.6134349 275.9842194 90.01928711 282.73071289 C84.85909805 286.36460686 79.73561851 290.04678074 74.625 293.75 C68.8193357 297.9568583 62.9898422 302.12603835 57.125 306.25 C50.42717362 310.96037086 43.77692553 315.73316721 37.14453125 320.53515625 C32.09258566 324.19255436 27.02543078 327.82747735 21.94580078 331.44628906 C17.21888636 334.81744278 12.51515297 338.22011477 7.8125 341.625 C0.94636541 346.59509657 -5.95701315 351.50937457 -12.89379883 356.38037109 C-13.55532959 356.84523926 -14.21686035 357.31010742 -14.8984375 357.7890625 C-15.50913086 358.21735352 -16.11982422 358.64564453 -16.74902344 359.08691406 C-18.09955943 360.05297314 -19.4177286 361.06409043 -20.7265625 362.0859375 C-22.375 363.25 -22.375 363.25 -24.375 363.25 C-24.375 363.91 -24.375 364.57 -24.375 365.25 C-22.54203596 365.56465883 -20.70860601 365.87660393 -18.875 366.1875 C-17.34359375 366.44853516 -17.34359375 366.44853516 -15.78125 366.71484375 C19.67989162 372.28614696 60.14060286 367.93151158 89.94433594 346.49755859 C97.91611483 340.58009925 105.00277049 334.46980694 110.94140625 326.44140625 C112.68013281 324.1782378 114.56885918 322.22515497 116.625 320.25 C127.37543451 328.24691722 137.99631783 336.39496044 148.55761719 344.63964844 C153.55981586 348.53602331 158.59500814 352.38962505 163.625 356.25 C165.79210847 357.91609253 167.95854953 359.58305199 170.125 361.25 C171.20832124 362.08334905 172.29165456 362.91668241 173.375 363.75 C179.875 368.75 186.375 373.75 192.875 378.75 C193.67973755 379.3689917 193.67973755 379.3689917 194.50073242 380.00048828 C195.58172121 380.83206811 196.66261349 381.66377342 197.7434082 382.49560547 C200.48682666 384.60681792 203.23199919 386.71567891 205.98046875 388.8203125 C212.59130658 393.88659807 219.14662617 399.014655 225.625 404.25 C222.18134091 414.29250321 212.78363963 422.6199645 205.625 430.25 C205.13435059 430.77464844 204.64370117 431.29929687 204.13818359 431.83984375 C157.74135648 481.03439811 87.1441563 504.42400651 20.8671875 507.18554688 C-39.68752554 508.92623113 -102.48466178 490.97007822 -150.375 453.25 C-151.46741575 452.42271435 -152.56122136 451.5972615 -153.65625 450.7734375 C-206.48392769 410.67785323 -240.57463486 350.56362443 -249.78344727 285.06396484 C-256.08876908 235.2995458 -247.56215313 185.22843603 -225.375 140.25 C-225.01970215 139.52167969 -224.6644043 138.79335938 -224.29833984 138.04296875 C-214.21139232 117.56466651 -200.8611238 98.97708197 -185.375 82.25 C-184.51003906 81.28191406 -183.64507813 80.31382812 -182.75390625 79.31640625 C-164.28927056 58.67829465 -141.79298515 42.18070642 -117.375 29.25 C-116.73626953 28.9087207 -116.09753906 28.56744141 -115.43945312 28.21582031 C-79.86560404 9.34542829 -40.24073473 -0.28069984 0 0 Z M-77.375 170.25 C-78.06078125 170.87261719 -78.7465625 171.49523437 -79.453125 172.13671875 C-97.50451597 189.08654846 -109.44918688 216.86612708 -110.64624023 241.46899414 C-110.7527477 245.08146464 -110.7527401 248.69014275 -110.71118164 252.30371094 C-110.68736267 254.5127367 -110.69068214 256.7205635 -110.69726562 258.9296875 C-110.68030513 266.87252021 -110.19764239 274.48368633 -108.375 282.25 C-105.38915322 281.64972294 -103.36524954 280.75849464 -100.8984375 278.984375 C-100.23739014 278.51338379 -99.57634277 278.04239258 -98.89526367 277.55712891 C-97.83335815 276.7863501 -97.83335815 276.7863501 -96.75 276 C-96.00145752 275.4642334 -95.25291504 274.9284668 -94.48168945 274.37646484 C-92.10774028 272.67453731 -89.74055262 270.96357491 -87.375 269.25 C-85.90234483 268.18489434 -84.4296886 267.11979014 -82.95703125 266.0546875 C-80.74396833 264.45370639 -78.53121302 262.85231643 -76.31982422 261.24902344 C-69.87811819 256.58800775 -63.36608533 252.03182881 -56.84326172 247.48535156 C-50.49902847 243.05582488 -44.21586587 238.54767804 -37.953125 234.00390625 C-32.25689004 229.87488938 -26.51750194 225.81077904 -20.76220703 221.76464844 C-15.66549552 218.1756798 -10.60794817 214.53559614 -5.5625 210.875 C1.6221426 205.66457223 8.87587487 200.56019059 16.15673828 195.48535156 C22.4919691 191.06211035 28.76579225 186.55980276 35.02050781 182.02368164 C40.28175347 178.21121024 45.56760357 174.43546205 50.875 170.6875 C51.5661792 170.19878418 52.2573584 169.71006836 52.96948242 169.20654297 C53.62408447 168.74521973 54.27868652 168.28389648 54.953125 167.80859375 C55.8802832 167.15479736 55.8802832 167.15479736 56.82617188 166.48779297 C58.56236211 165.2931018 60.32982666 164.16376454 62.109375 163.03515625 C62.93953125 162.44605469 63.7696875 161.85695313 64.625 161.25 C64.625 160.59 64.625 159.93 64.625 159.25 C20.88810275 127.16644131 -38.87899298 133.41330363 -77.375 170.25 Z " fill="#F36693" transform="translate(853.375,285.75)"/>
<path d="M0 0 C45.54 0 91.08 0 138 0 C138 235.95 138 471.9 138 715 C92.46 715 46.92 715 0 715 C0 479.05 0 243.1 0 0 Z " fill="#EB5B85" transform="translate(1735,67)"/>
<path d="M0 0 C1.21739365 0.00515121 1.21739365 0.00515121 2.4593811 0.01040649 C14.28392428 0.06896902 25.93942075 0.29011453 37.625 2.25 C38.58809082 2.40597656 39.55118164 2.56195313 40.54345703 2.72265625 C85.6803213 10.20964956 127.0133102 28.50595408 162.625 57.25 C164.15447266 58.47203125 164.15447266 58.47203125 165.71484375 59.71875 C178.95428745 70.49083348 191.24086674 82.69850564 201.625 96.25 C202.78128906 97.68085938 202.78128906 97.68085938 203.9609375 99.140625 C217.71664889 116.41120271 228.50445149 135.5095719 237.0625 155.8125 C237.71919678 157.36650513 237.71919678 157.36650513 238.38916016 158.9519043 C238.79569824 159.93843994 239.20223633 160.92497559 239.62109375 161.94140625 C240.16527954 163.25927124 240.16527954 163.25927124 240.72045898 164.60375977 C241.70109019 167.47260232 242.20392264 170.25198405 242.625 173.25 C241.5234375 174.04557292 240.421875 174.84114583 239.3203125 175.63671875 C238.60093506 176.1562915 237.88155762 176.67586426 237.14038086 177.21118164 C235.52409269 178.37845502 233.90771661 179.54560669 232.29125977 180.71264648 C228.19866904 183.6676384 224.10721236 186.62415689 220.01953125 189.5859375 C212.05464828 195.3538214 204.06019012 201.07460681 196.01708984 206.73291016 C187.83313928 212.49814524 179.730709 218.37553993 171.625 224.25 C162.12733199 231.13325617 152.61067967 237.98384082 143.01708984 244.73291016 C134.83313928 250.49814524 126.730709 256.37553993 118.625 262.25 C109.12817587 269.13264459 99.6134349 275.9842194 90.01928711 282.73071289 C84.85909805 286.36460686 79.73561851 290.04678074 74.625 293.75 C68.8193357 297.9568583 62.9898422 302.12603835 57.125 306.25 C50.42717362 310.96037086 43.77692553 315.73316721 37.14453125 320.53515625 C32.09258566 324.19255436 27.02543078 327.82747735 21.94580078 331.44628906 C17.21888636 334.81744278 12.51515297 338.22011477 7.8125 341.625 C0.94636541 346.59509657 -5.95701315 351.50937457 -12.89379883 356.38037109 C-13.55532959 356.84523926 -14.21686035 357.31010742 -14.8984375 357.7890625 C-15.50913086 358.21735352 -16.11982422 358.64564453 -16.74902344 359.08691406 C-18.09955943 360.05297314 -19.4177286 361.06409043 -20.7265625 362.0859375 C-22.375 363.25 -22.375 363.25 -24.375 363.25 C-24.375 363.91 -24.375 364.57 -24.375 365.25 C-22.54203596 365.56465883 -20.70860601 365.87660393 -18.875 366.1875 C-17.34359375 366.44853516 -17.34359375 366.44853516 -15.78125 366.71484375 C19.67989162 372.28614696 60.14060286 367.93151158 89.94433594 346.49755859 C97.91611483 340.58009925 105.00277049 334.46980694 110.94140625 326.44140625 C112.68013281 324.1782378 114.56885918 322.22515497 116.625 320.25 C127.37543451 328.24691722 137.99631783 336.39496044 148.55761719 344.63964844 C153.55981586 348.53602331 158.59500814 352.38962505 163.625 356.25 C165.79210847 357.91609253 167.95854953 359.58305199 170.125 361.25 C171.20832124 362.08334905 172.29165456 362.91668241 173.375 363.75 C179.875 368.75 186.375 373.75 192.875 378.75 C193.67973755 379.3689917 193.67973755 379.3689917 194.50073242 380.00048828 C195.58172121 380.83206811 196.66261349 381.66377342 197.7434082 382.49560547 C200.48682666 384.60681792 203.23199919 386.71567891 205.98046875 388.8203125 C212.59130658 393.88659807 219.14662617 399.014655 225.625 404.25 C222.18134091 414.29250321 212.78363963 422.6199645 205.625 430.25 C205.13435059 430.77464844 204.64370117 431.29929687 204.13818359 431.83984375 C157.74135648 481.03439811 87.1441563 504.42400651 20.8671875 507.18554688 C-39.68752554 508.92623113 -102.48466178 490.97007822 -150.375 453.25 C-151.46741575 452.42271435 -152.56122136 451.5972615 -153.65625 450.7734375 C-206.48392769 410.67785323 -240.57463486 350.56362443 -249.78344727 285.06396484 C-256.08876908 235.2995458 -247.56215313 185.22843603 -225.375 140.25 C-225.01970215 139.52167969 -224.6644043 138.79335938 -224.29833984 138.04296875 C-214.21139232 117.56466651 -200.8611238 98.97708197 -185.375 82.25 C-184.51003906 81.28191406 -183.64507813 80.31382812 -182.75390625 79.31640625 C-164.28927056 58.67829465 -141.79298515 42.18070642 -117.375 29.25 C-116.73626953 28.9087207 -116.09753906 28.56744141 -115.43945312 28.21582031 C-79.86560404 9.34542829 -40.24073473 -0.28069984 0 0 Z M-44.375 5.25 C-46.3236346 5.62156627 -48.27279474 5.9903956 -50.22265625 6.35546875 C-73.76662239 11.12741687 -95.04644674 19.26256347 -116.375 30.25 C-117.21289062 30.67539062 -118.05078125 31.10078125 -118.9140625 31.5390625 C-136.35737955 40.46221148 -151.70835072 52.34092439 -166.375 65.25 C-167.62410156 66.31541016 -167.62410156 66.31541016 -168.8984375 67.40234375 C-202.51355138 96.61159319 -225.22110535 136.50146426 -239.375 178.25 C-239.97634766 180.0134375 -239.97634766 180.0134375 -240.58984375 181.8125 C-246.24668412 199.98708753 -249.47541529 219.75356946 -249.578125 238.7890625 C-249.58504868 239.66494522 -249.59197235 240.54082794 -249.59910583 241.44325256 C-249.61628448 244.25388122 -249.62269285 247.06432131 -249.625 249.875 C-249.62633942 250.83475739 -249.62767883 251.79451477 -249.62905884 252.78335571 C-249.62485233 266.6763033 -249.17724779 280.20780203 -246.78076172 293.92626953 C-246.40084565 296.10198625 -246.07074882 298.27920233 -245.75390625 300.46484375 C-243.88394714 312.09111128 -240.18636165 323.13616214 -236.375 334.25 C-236.12347168 334.98782715 -235.87194336 335.7256543 -235.61279297 336.48583984 C-225.26000734 366.46266862 -208.64734949 394.78244807 -186.73828125 417.76953125 C-184.77256724 419.83271868 -182.94080589 421.93224201 -181.125 424.125 C-170.67795964 436.08215757 -158.16152681 445.94090083 -145.375 455.25 C-144.80040039 455.67120117 -144.22580078 456.09240234 -143.63378906 456.52636719 C-112.61646663 479.12337146 -76.15317653 494.54691176 -38.375 501.25 C-37.31039551 501.44319824 -36.24579102 501.63639648 -35.14892578 501.83544922 C0.45270883 508.05064124 37.3654551 506.98897934 72.625 499.25 C73.55119141 499.04922852 74.47738281 498.84845703 75.43164062 498.64160156 C114.16332991 490.07416245 151.55336331 474.17654977 182.625 449.25 C183.63304687 448.445625 184.64109375 447.64125 185.6796875 446.8125 C200.27812096 434.93314004 212.81368669 421.64793107 223.625 406.25 C222.10118099 402.27559486 219.72320179 400.57347731 216.3125 398.125 C215.22070455 397.33031882 214.12958142 396.53471328 213.0390625 395.73828125 C212.47477539 395.32916504 211.91048828 394.92004883 211.32910156 394.49853516 C208.5789097 392.4835665 205.88383126 390.39868861 203.1875 388.3125 C202.09510354 387.46998536 201.00265534 386.62753781 199.91015625 385.78515625 C199.36762207 385.36637207 198.82508789 384.94758789 198.26611328 384.51611328 C195.55477871 382.42432793 192.83971548 380.33739443 190.125 378.25 C189.04164851 377.41669027 187.95831518 376.58335693 186.875 375.75 C186.33875 375.3375 185.8025 374.925 185.25 374.5 C179.29166667 369.91666667 173.33333333 365.33333333 167.375 360.75 C166.83915283 360.33782227 166.30330566 359.92564453 165.7512207 359.50097656 C164.66376999 358.6644509 163.57636793 357.82786197 162.48901367 356.99121094 C159.84406213 354.95620712 157.19818888 352.92243467 154.55078125 350.890625 C146.67091354 344.83983574 138.82350242 338.7479967 130.984375 332.64453125 C130.27474609 332.09619629 129.56511719 331.54786133 128.83398438 330.98291016 C127.26666698 329.75337668 125.71754118 328.50049415 124.18164062 327.23193359 C123.38435547 326.5817627 122.58707031 325.9315918 121.765625 325.26171875 C121.04407227 324.66190186 120.32251953 324.06208496 119.57910156 323.4440918 C118.93424805 323.0500415 118.28939453 322.65599121 117.625 322.25 C113.83499471 323.5133351 113.30484732 324.89463742 111.125 328.1875 C98.59742526 345.87753685 79.26170601 356.19194647 59.1875 363.0625 C58.39110107 363.34029297 57.59470215 363.61808594 56.77416992 363.90429688 C42.57007745 368.54351969 28.44136959 369.7479747 13.59448242 369.64111328 C10.92900967 369.62494851 8.26503831 369.64110875 5.59960938 369.66015625 C-18.2159551 369.68936326 -18.2159551 369.68936326 -26.375 364.25 C-25.2734375 363.45442708 -24.171875 362.65885417 -23.0703125 361.86328125 C-22.35093506 361.3437085 -21.63155762 360.82413574 -20.89038086 360.28881836 C-19.27409269 359.12154498 -17.65771661 357.95439331 -16.04125977 356.78735352 C-11.94866904 353.8323616 -7.85721236 350.87584311 -3.76953125 347.9140625 C4.19451436 342.14678499 12.18727641 336.42533838 20.23071289 330.76928711 C25.39090195 327.13539314 30.51438149 323.45321926 35.625 319.75 C41.4306656 315.54314076 47.26021719 311.37404728 53.125 307.25 C62.01576572 300.99567124 70.82333001 294.6288447 79.625 288.25 C89.12266801 281.36674383 98.63932033 274.51615918 108.23291016 267.76708984 C116.41686072 262.00185476 124.519291 256.12446007 132.625 250.25 C142.12182413 243.36735541 151.6365651 236.5157806 161.23071289 229.76928711 C166.39090195 226.13539314 171.51438149 222.45321926 176.625 218.75 C182.4306656 214.54314076 188.26021719 210.37404728 194.125 206.25 C201.46984812 201.08316777 208.7601763 195.84426127 216.03125 190.57421875 C219.23241567 188.25420296 222.44164876 185.9458935 225.65625 183.64453125 C226.47746338 183.05534912 227.29867676 182.46616699 228.14477539 181.85913086 C229.72055087 180.72889424 231.29779331 179.60069918 232.87670898 178.47485352 C233.58641846 177.96494873 234.29612793 177.45504395 235.02734375 176.9296875 C235.65116943 176.48351074 236.27499512 176.03733398 236.91772461 175.57763672 C238.63107084 174.2452791 240.12575262 172.81670346 241.625 171.25 C236.49315304 158.2913697 231.20932878 145.54363053 224.625 133.25 C224.01269531 132.09628906 223.40039062 130.94257813 222.76953125 129.75390625 C214.69727664 115.09069736 204.75821399 101.71935969 193.625 89.25 C193.1727002 88.74130371 192.72040039 88.23260742 192.25439453 87.70849609 C182.44498205 76.7220934 172.28278577 66.29894624 160.625 57.25 C160.0465332 56.79512207 159.46806641 56.34024414 158.87207031 55.87158203 C126.32683382 30.35877616 89.16819068 13.95525059 48.75 6 C47.75980362 5.80334747 47.75980362 5.80334747 46.74960327 5.60272217 C44.81639946 5.22193368 42.88086058 4.85306254 40.9453125 4.484375 C39.26332764 4.16291504 39.26332764 4.16291504 37.54736328 3.83496094 C28.50627361 2.48661967 19.46304067 2.08744338 10.33203125 2.046875 C9.30172287 2.04117493 8.27141449 2.03547485 7.20988464 2.02960205 C5.0461019 2.02023144 2.8823054 2.01365007 0.71850586 2.00976562 C-2.53753349 2.00007431 -5.7929365 1.96897928 -9.04882812 1.9375 C-21.19805557 1.87573771 -32.51338622 2.63624688 -44.375 5.25 Z " fill="#12070B" transform="translate(853.375,285.75)"/>
<path d="M0 0 C1.31943604 0.28206299 1.31943604 0.28206299 2.66552734 0.56982422 C31.49978605 6.92742169 57.91867139 18.64055827 81 37 C81.02505615 36.15703369 81.0501123 35.31406738 81.07592773 34.44555664 C81.17088155 31.32758326 81.27012448 28.20978497 81.37231445 25.09204102 C81.41571223 23.74085853 81.4573837 22.38961947 81.49731445 21.03833008 C81.55489952 19.09963299 81.61914298 17.16113724 81.68359375 15.22265625 C81.72025146 14.05484619 81.75690918 12.88703613 81.79467773 11.68383789 C82 9 82 9 83 8 C128.54 8 174.08 8 221 8 C221 168.05 221 328.1 221 493 C175.46 493 129.92 493 83 493 C81.14034925 491.14034925 81.75912451 488.05110881 81.68359375 485.55859375 C81.64169922 484.25341797 81.59980469 482.94824219 81.55664062 481.60351562 C81.51682392 480.2148467 81.47711175 478.82617478 81.4375 477.4375 C81.39432011 476.04490817 81.350706 474.65232972 81.30664062 473.25976562 C81.20014124 469.83995199 81.09813077 466.42006237 81 463 C80.34427002 463.6818335 80.34427002 463.6818335 79.67529297 464.37744141 C50.68015403 494.03031507 4.04670129 503.43172568 -35.79882812 504.01123047 C-89.29089313 503.82356764 -143.0715213 483.63022887 -183 448 C-184.41606013 446.77013463 -185.83264572 445.54087371 -187.25 444.3125 C-187.86230469 443.77109375 -188.47460938 443.2296875 -189.10546875 442.671875 C-190.47428672 441.46392842 -191.85321038 440.26740052 -193.23828125 439.078125 C-197.48027269 435.39935595 -201.38913573 431.65733318 -205.0078125 427.36328125 C-206.5419478 425.54337564 -208.09708884 423.75745061 -209.6796875 421.98046875 C-223.48451901 406.37749054 -234.22865152 389.37471283 -244 371 C-244.39171387 370.26346191 -244.78342773 369.52692383 -245.18701172 368.76806641 C-259.48858198 341.3583718 -267.60320088 310.61482071 -271 280 C-271.0942627 279.21882813 -271.18852539 278.43765625 -271.28564453 277.6328125 C-272.28499973 268.36508916 -272.24364891 259.06080582 -272.25 249.75 C-272.25101212 248.41474777 -272.25101212 248.41474777 -272.25204468 247.05252075 C-272.23534523 233.16091833 -271.64063721 219.67308669 -269 206 C-268.82307617 205.05995117 -268.64615234 204.11990234 -268.46386719 203.15136719 C-263.31603516 176.38086248 -254.78422228 151.09043253 -242 127 C-241.63181152 126.29166016 -241.26362305 125.58332031 -240.88427734 124.85351562 C-212.45906731 70.33677763 -161.02335472 25.9761805 -102.34912109 7.14941406 C-69.66068141 -2.84247983 -33.71076905 -7.37823148 0 0 Z M-86 4 C-87.3312793 4.29632324 -87.3312793 4.29632324 -88.68945312 4.59863281 C-120.94871195 12.04011124 -151.71509809 28.90089934 -177 50 C-177.57024902 50.46873535 -178.14049805 50.9374707 -178.72802734 51.42041016 C-191.73903641 62.13301305 -203.60539419 73.70787249 -214 87 C-214.97646484 88.175625 -214.97646484 88.175625 -215.97265625 89.375 C-233.14895217 110.13680501 -245.16933578 134.06368099 -255 159 C-255.28987793 159.72832031 -255.57975586 160.45664062 -255.87841797 161.20703125 C-262.5516681 178.15998226 -266.14642517 196.0666696 -269 214 C-269.12004395 214.71849121 -269.24008789 215.43698242 -269.36376953 216.17724609 C-272.99804482 238.60576171 -272.4360607 263.59313272 -269 286 C-268.8546582 286.98355469 -268.70931641 287.96710938 -268.55957031 288.98046875 C-260.76432454 340.07744903 -239.02002719 388.46007617 -203.5625 426.25 C-201.25457931 428.72679294 -199.02673791 431.25228742 -196.8125 433.8125 C-193.14726512 437.9331348 -189.2497969 441.49275731 -185 445 C-184.44812012 445.46422363 -183.89624023 445.92844727 -183.32763672 446.40673828 C-153.76644829 471.25673338 -119.97550869 488.7498023 -82.25 497.3125 C-81.18652344 497.55508545 -80.12304688 497.7976709 -79.02734375 498.04760742 C-64.43969237 501.19691036 -49.89888116 502.41242811 -35 502.375 C-34.24908081 502.37512085 -33.49816162 502.3752417 -32.7244873 502.37536621 C-18.86955943 502.34390268 -5.55765669 500.96168822 8 498 C8.70882324 497.85046875 9.41764648 497.7009375 10.14794922 497.546875 C38.09149416 491.4761627 62.79857595 479.20142405 83 459 C83.33 469.89 83.66 480.78 84 492 C128.88 492 173.76 492 220 492 C220 332.61 220 173.22 220 9 C175.12 9 130.24 9 84 9 C84 19.56 84 30.12 84 41 C81.56625 39.06125 79.1325 37.1225 76.625 35.125 C48.96105749 13.73208803 10.53672575 -0.75868497 -24.57421875 -1.2734375 C-25.36829636 -1.28592026 -26.16237396 -1.29840302 -26.98051453 -1.31126404 C-47.21872309 -1.56717304 -66.18023963 -0.47807843 -86 4 Z " fill="#14070B" transform="translate(1421,289)"/>
<path d="M0 0 C3.54843603 2.68728374 6.97733447 5.50228633 10.36328125 8.390625 C11.11351562 9.02484375 11.86375 9.6590625 12.63671875 10.3125 C36.36811055 32.20349815 44.65377777 65.15446781 46.59375 96.0625 C47.32959644 125.35619643 37.72221589 155.27168161 18.36328125 177.390625 C17.76257812 178.13441406 17.161875 178.87820313 16.54296875 179.64453125 C0.42367389 199.0348964 -24.7928711 210.86289617 -49.63671875 213.390625 C-83.00949733 215.28761398 -113.0170111 208.6029978 -138.63671875 186.390625 C-139.66796875 185.606875 -140.69921875 184.823125 -141.76171875 184.015625 C-146.25862906 179.90975037 -149.9094238 175.19221937 -153.63671875 170.390625 C-154.23613281 169.64167969 -154.83554688 168.89273438 -155.453125 168.12109375 C-164.05285124 156.72795295 -170.39503562 142.24145293 -173.63671875 128.390625 C-173.93320313 127.15570312 -174.2296875 125.92078125 -174.53515625 124.6484375 C-178.89596562 104.28177956 -178.78363295 81.34807747 -172.63671875 61.390625 C-172.42772949 60.70403809 -172.21874023 60.01745117 -172.00341797 59.31005859 C-163.28013304 31.68959013 -144.18988061 7.3809988 -118.59375 -6.4296875 C-81.32905811 -25.41496488 -34.55952484 -25.33694865 0 0 Z M-143.05078125 13.7109375 C-162.273096 33.63013376 -174.55630158 60.58162642 -175.63671875 88.390625 C-175.67667969 89.23625 -175.71664063 90.081875 -175.7578125 90.953125 C-176.48536484 121.76710642 -167.8057711 150.1679134 -148.63671875 174.390625 C-148.13398437 175.04933594 -147.63125 175.70804688 -147.11328125 176.38671875 C-142.71504139 181.89087442 -137.19123291 186.10854412 -131.63671875 190.390625 C-130.83105469 191.01195312 -130.02539062 191.63328125 -129.1953125 192.2734375 C-105.31831125 209.81732969 -74.81093299 215.84555094 -45.73706055 211.56567383 C-17.31362092 206.65938441 7.20816604 191.57092938 24.09228516 168.21240234 C43.73804009 140.05323536 48.00759435 104.53777937 42.34765625 71.24609375 C40.97959293 64.07511456 38.83883489 57.24720573 36.36328125 50.390625 C36.06808594 49.50632812 35.77289062 48.62203125 35.46875 47.7109375 C26.84750635 23.69742779 7.07789453 3.52152653 -15.56640625 -7.59375 C-58.87152968 -27.83919995 -108.56189774 -18.7551376 -143.05078125 13.7109375 Z " fill="#15090D" transform="translate(1464.63671875,442.609375)"/>
<path d="M0 0 C45.54 0 91.08 0 138 0 C138 160.05 138 320.1 138 485 C92.46 485 46.92 485 0 485 C0 484.67 0 484.34 0 484 C45.21 484 90.42 484 137 484 C137 324.61 137 165.22 137 1 C92.12 1 47.24 1 1 1 C1 11.56 1 22.12 1 33 C-2.7636438 31.1181781 -5.38467093 29.1458501 -8.625 26.5 C-18.18486732 18.91002777 -29.08541186 13.37945628 -40 8 C-37 7 -37 7 -35.16918945 7.61401367 C-32.87467675 8.79028862 -30.58535505 9.96966713 -28.3125 11.1875 C-27.47485107 11.63077637 -26.63720215 12.07405273 -25.77416992 12.53076172 C-17.21400391 17.19906179 -9.58770375 22.9089054 -2 29 C-1.96241577 27.73555054 -1.96241577 27.73555054 -1.92407227 26.44555664 C-1.82911845 23.32758326 -1.72987552 20.20978497 -1.62768555 17.09204102 C-1.58428777 15.74085853 -1.5426163 14.38961947 -1.50268555 13.03833008 C-1.44510048 11.09963299 -1.38085702 9.16113724 -1.31640625 7.22265625 C-1.27974854 6.05484619 -1.24309082 4.88703613 -1.20532227 3.68383789 C-1 1 -1 1 0 0 Z " fill="#000000" transform="translate(1504,297)"/>
<path d="M0 0 C1.51404498 0.00138269 1.51404498 0.00138269 3.05867672 0.00279331 C4.21279049 0.00141865 5.36690426 0.00004398 6.55599117 -0.00137234 C8.47217503 0.00402058 8.47217503 0.00402058 10.42706966 0.00952244 C11.77695368 0.00980431 13.12683784 0.00964658 14.47672176 0.00907993 C18.15217848 0.00879196 21.82760283 0.01468867 25.503052 0.02165389 C29.34010388 0.02788744 33.17715644 0.02849123 37.01421261 0.0296793 C44.28508458 0.03279261 51.55594159 0.04100599 58.82680696 0.05102879 C67.10236592 0.06218993 75.37792558 0.06770038 83.65349019 0.07272422 C100.68145959 0.08318861 117.70941441 0.10078805 134.7373724 0.12304783 C134.7373724 0.45304783 134.7373724 0.78304783 134.7373724 1.12304783 C89.8573724 1.12304783 44.9773724 1.12304783 -1.2626276 1.12304783 C-1.2626276 11.68304783 -1.2626276 22.24304783 -1.2626276 33.12304783 C-5.0262714 31.24122593 -7.64729853 29.26889793 -10.8876276 26.62304783 C-20.44749492 19.0330756 -31.34803947 13.5025041 -42.2626276 8.12304783 C-39.2626276 7.12304783 -39.2626276 7.12304783 -37.43181705 7.7370615 C-35.13730436 8.91333645 -32.84798265 10.09271496 -30.5751276 11.31054783 C-29.73747868 11.7538242 -28.89982975 12.19710056 -28.03679752 12.65380955 C-19.47663151 17.32210961 -11.85033135 23.03195323 -4.2626276 29.12304783 C-4.22504337 27.85859837 -4.22504337 27.85859837 -4.18669987 26.56860447 C-4.09174605 23.45063109 -3.99250312 20.33283279 -3.89031315 17.21508884 C-3.84691537 15.86390636 -3.8052439 14.5126673 -3.76531315 13.16137791 C-3.70772809 11.22268082 -3.64348463 9.28418507 -3.57903385 7.34570408 C-3.54237614 6.17789402 -3.50571842 5.01008396 -3.46794987 3.80688572 C-3.18998259 0.17347991 -3.18998259 0.17347991 0 0 Z " fill="#000000" transform="translate(1506.2626276016235,296.8769521713257)"/>
<path d="M0 0 C0.33 0 0.66 0 1 0 C1 11.22 1 22.44 1 34 C0.34 34 -0.32 34 -1 34 C-1.33 24.43 -1.66 14.86 -2 5 C-5.465 8.465 -5.465 8.465 -9 12 C-31.35146105 29.82156494 -66.99492985 46.11386439 -96 43 C-96 42.67 -96 42.34 -96 42 C-95.4423999 41.93006836 -94.8847998 41.86013672 -94.31030273 41.78808594 C-60.65857583 37.48785499 -25.44923365 27.12505924 -1.57421875 1.6171875 C-1.05472656 1.08351563 -0.53523438 0.54984375 0 0 Z " fill="#160B0F" transform="translate(1504,747)"/>
<path d="M0 0 C0.82907867 0.00093658 1.65815735 0.00187317 2.51235962 0.00283813 C14.47403915 0.03217475 26.23991261 0.20463576 38.0625 2.1875 C39.02559082 2.34347656 39.98868164 2.49945313 40.98095703 2.66015625 C82.40654921 9.53154921 82.40654921 9.53154921 89.0625 16.1875 C83.20645257 14.92312612 77.40299664 13.5251713 71.60180664 12.03027344 C60.79986935 9.25711964 50.08793385 6.86226871 39.0625 5.1875 C37.87785156 5.00429199 36.69320312 4.82108398 35.47265625 4.63232422 C22.32050983 2.84239717 9.25235082 2.9621536 -4 3.0625 C-6.33137633 3.07255673 -8.6627569 3.08167778 -10.99414062 3.08984375 C-16.64202119 3.11162797 -22.28974011 3.14488925 -27.9375 3.1875 C-27.9375 2.5275 -27.9375 1.8675 -27.9375 1.1875 C-18.63165139 0.01606891 -9.36242643 -0.01360328 0 0 Z " fill="#290E15" transform="translate(852.9375,285.8125)"/>
<path d="M0 0 C0.66 0 1.32 0 2 0 C2 10.56 2 21.12 2 32 C-1.7636438 30.1181781 -4.38467093 28.1458501 -7.625 25.5 C-17.18486732 17.91002777 -28.08541186 12.37945628 -39 7 C-36 6 -36 6 -34.16918945 6.61401367 C-31.87467675 7.79028862 -29.58535505 8.96966713 -27.3125 10.1875 C-26.47485107 10.63077637 -25.63720215 11.07405273 -24.77416992 11.53076172 C-16.16715243 16.22461231 -8.69052823 21.93224378 -1 28 C-0.67 18.76 -0.34 9.52 0 0 Z " fill="#14070A" transform="translate(1503,298)"/>
<path d="M0 0 C0.66 0.33 1.32 0.66 2 1 C-7.24 10.24 -16.48 19.48 -26 29 C-26.66 28.67 -27.32 28.34 -28 28 C-27.43152344 27.443125 -26.86304688 26.88625 -26.27734375 26.3125 C-22.6089525 22.68697809 -19.00204821 19.07948574 -15.6875 15.125 C-10.95579622 9.58599131 -5.4230516 4.84423657 0 0 Z " fill="#D14C71" transform="translate(691,347)"/>
<path d="M0 0 C0.66 0.33 1.32 0.66 2 1 C-0.64 3.97 -3.28 6.94 -6 10 C-6.66 9.67 -7.32 9.34 -8 9 C-6.85459775 7.68712379 -5.70866567 6.37470979 -4.5625 5.0625 C-3.92441406 4.33160156 -3.28632812 3.60070312 -2.62890625 2.84765625 C-1.77458541 1.87860647 -0.91348825 0.91348825 0 0 Z " fill="#260F15" transform="translate(1323,453)"/>
</svg>
